.
..............................Site Info...........................

 -   http://www.scenetime.com  *_*   


Scenetime .Always on time . friendly online private torrent community ..

     We care to share . Join us on  http://www.scenetime.com 

    Be the first to get new release at  http://www.scenetime.com

        Seed back for speed


...................................NFO:.................................................[img]http://imgair.net/i/affiche-dead-season-2012-2-1339880815.jpg[/img]


Release Name
------------
Dead.Season.2012.DVDRiP.XviD.HS


IMDB Info
--------- 
http://www.imdb.com/title/tt1650042/


Director:
Adam Deyoe
Writers:
Joshua Klausner (screenplay), Loren Semmens (screenplay), and 1 more credit 
Stars:
James C. Burns, Scott Peat and Marissa Merrill...


Tralier
-------


Audio And Video Info
---------------------
Language-English
Subtitle-NA
Source-US

Format                                   : AVI
Format/Info                              : Audio Video Interleave
File size                                : 702 MiB
Duration                                 : 1h 25mn
Overall bit rate                         : 1 152 Kbps


Video
ID                                       : 0
Format                                   : MPEG-4 Visual
Format profile                           : Advanced Simple@L5
Format settings, BVOP                    : 2
Format settings, QPel                    : No
Format settings, GMC                     : No warppoints
Format settings, Matrix                  : Default (H.263)
Muxing mode                              : Packed bitstream
Codec ID                                 : XVID
Codec ID/Hint                            : XviD
Duration                                 : 1h 25mn
Bit rate                                 : 1 014 Kbps
Width                                    : 656 pixels
Height                                   : 352 pixels
Display aspect ratio                     : 1.85:1
Frame rate                               : 25.000 fps
Color space                              : YUV
Chroma subsampling                       : 4:2:0
Bit depth                                : 8 bits
Scan type                                : Progressive
Compression mode                         : Lossy
Bits/(Pixel*Frame)                       : 0.176
Stream size                              : 618 MiB (88%)
Writing library                          : XviD 64

Audio
ID                                       : 1
Format                                   : MPEG Audio
Format version                           : Version 1
Format profile                           : Layer 3
Codec ID                                 : 55
Codec ID/Hint                            : MP3
Duration                                 : 1h 25mn
Bit rate mode                            : Constant
Bit rate                                 : 128 Kbps
Channel(s)                               : 2 channels
Sampling rate                            : 48.0 KHz
Compression mode                         : Lossy
Stream size                              : 78.0 MiB (11%)



Find Us For More Awesome Stuffs And You Know Where...Enjoy..:)